<svg xmlns="http://www.w3.org/2000/svg" xmlns:xlink="http://www.w3.org/1999/xlink" width="500" zoomAndPan="magnify" viewBox="0 0 375 304.499991" height="406" preserveAspectRatio="xMidYMid meet" version="1.0"><defs><g/><clipPath id="2a489fa558"><path d="M 43 8.367188 L 332 8.367188 L 332 295.703125 L 43 295.703125 Z M 43 8.367188 " clip-rule="nonzero"/></clipPath><clipPath id="298af90574"><path d="M 10.375 122 L 364.542969 122 L 364.542969 182 L 10.375 182 Z M 10.375 122 " clip-rule="nonzero"/></clipPath><clipPath id="79ea8be878"><path d="M 318 8 L 336.882812 8 L 336.882812 35 L 318 35 Z M 318 8 " clip-rule="nonzero"/></clipPath><clipPath id="7a9e2195ca"><rect x="0" width="337" y="0" height="44"/></clipPath></defs><g clip-path="url(#2a489fa558)"><path fill="#e1251b" d="M 280.519531 151.929688 C 280.519531 203.152344 238.957031 244.691406 187.722656 244.691406 C 136.472656 244.691406 94.945312 203.152344 94.945312 151.929688 C 94.945312 100.710938 136.472656 59.183594 187.722656 59.183594 C 238.957031 59.183594 280.519531 100.710938 280.519531 151.929688 M 187.722656 8.175781 C 108.296875 8.175781 43.917969 72.539062 43.917969 151.929688 C 43.917969 231.332031 108.296875 295.703125 187.722656 295.703125 C 267.128906 295.703125 331.503906 231.332031 331.503906 151.929688 C 331.503906 72.539062 267.128906 8.175781 187.722656 8.175781 " fill-opacity="1" fill-rule="nonzero"/></g><g clip-path="url(#298af90574)"><path fill="#000f9f" d="M 10.5 122.90625 L 364.417969 122.90625 L 364.417969 181.058594 L 10.5 181.058594 Z M 10.5 122.90625 " fill-opacity="1" fill-rule="nonzero"/></g><g transform="matrix(1, 0, 0, 1, 19, 130)"><g clip-path="url(#7a9e2195ca)"><g fill="#ffffff" fill-opacity="1"><g transform="translate(0.767782, 34.230615)"><g><path d="M 17.09375 -9.890625 L 8.1875 -9.890625 L 8.1875 0 L 2.640625 0 L 2.640625 -25.34375 L 18.765625 -25.34375 L 18.765625 -20.203125 L 8.1875 -20.203125 L 8.1875 -14.90625 L 17.09375 -14.90625 Z M 17.09375 -9.890625 "/></g></g></g><g fill="#ffffff" fill-opacity="1"><g transform="translate(20.698153, 34.230615)"><g><path d="M 7.265625 0 L 1.984375 0 L 1.984375 -25.828125 L 7.265625 -25.828125 Z M 7.265625 0 "/></g></g></g><g fill="#ffffff" fill-opacity="1"><g transform="translate(29.944199, 34.230615)"><g><path d="M 7.15625 0.4375 C 5.351562 0.4375 3.921875 -0.0546875 2.859375 -1.046875 C 1.796875 -2.035156 1.265625 -3.363281 1.265625 -5.03125 C 1.265625 -6.601562 1.804688 -7.859375 2.890625 -8.796875 C 3.972656 -9.734375 5.546875 -10.285156 7.609375 -10.453125 L 12.40625 -10.828125 L 12.40625 -11.09375 C 12.40625 -12.8125 11.429688 -13.671875 9.484375 -13.671875 C 7.203125 -13.671875 6.0625 -12.867188 6.0625 -11.265625 L 1.671875 -11.265625 C 1.671875 -12.566406 2.003906 -13.695312 2.671875 -14.65625 C 3.335938 -15.613281 4.28125 -16.351562 5.5 -16.875 C 6.71875 -17.40625 8.140625 -17.671875 9.765625 -17.671875 C 12.253906 -17.671875 14.171875 -17.003906 15.515625 -15.671875 C 16.859375 -14.335938 17.53125 -12.445312 17.53125 -10 L 17.53125 0 L 12.875 0 L 12.53125 -2.265625 C 12.257812 -1.484375 11.613281 -0.835938 10.59375 -0.328125 C 9.582031 0.179688 8.4375 0.4375 7.15625 0.4375 Z M 9 -3.453125 C 10.007812 -3.453125 10.832031 -3.695312 11.46875 -4.1875 C 12.113281 -4.6875 12.4375 -5.425781 12.4375 -6.40625 L 12.4375 -7.328125 L 9.765625 -7.09375 C 8.617188 -7 7.8125 -6.804688 7.34375 -6.515625 C 6.875 -6.234375 6.640625 -5.820312 6.640625 -5.28125 C 6.640625 -4.0625 7.425781 -3.453125 9 -3.453125 Z M 9 -3.453125 "/></g></g></g><g fill="#ffffff" fill-opacity="1"><g transform="translate(49.086942, 34.230615)"><g><path d="M 8.90625 0 L 3.625 0 L 3.625 -12.734375 L 0.375 -12.734375 L 0.375 -17.125 L 3.625 -17.125 L 3.625 -22.4375 L 8.90625 -22.4375 L 8.90625 -17.125 L 12.15625 -17.125 L 12.15625 -12.734375 L 8.90625 -12.734375 Z M 8.90625 0 "/></g></g></g><g fill="#ffffff" fill-opacity="1"><g transform="translate(61.620478, 34.230615)"><g/></g></g><g fill="#ffffff" fill-opacity="1"><g transform="translate(70.695308, 34.230615)"><g><path d="M 12.90625 -8.421875 L 8.1875 -8.421875 L 8.1875 0 L 2.640625 0 L 2.640625 -25.34375 L 12.90625 -25.34375 C 14.644531 -25.34375 16.160156 -24.988281 17.453125 -24.28125 C 18.742188 -23.570312 19.75 -22.582031 20.46875 -21.3125 C 21.1875 -20.050781 21.546875 -18.578125 21.546875 -16.890625 C 21.546875 -15.191406 21.1875 -13.707031 20.46875 -12.4375 C 19.75 -11.175781 18.742188 -10.191406 17.453125 -9.484375 C 16.160156 -8.773438 14.644531 -8.421875 12.90625 -8.421875 Z M 11.671875 -20.40625 L 8.1875 -20.40625 L 8.1875 -13.359375 L 11.671875 -13.359375 C 14.347656 -13.359375 15.6875 -14.535156 15.6875 -16.890625 C 15.6875 -19.234375 14.347656 -20.40625 11.671875 -20.40625 Z M 11.671875 -20.40625 "/></g></g></g><g fill="#ffffff" fill-opacity="1"><g transform="translate(93.091291, 34.230615)"><g><path d="M 12.90625 -8.421875 L 8.1875 -8.421875 L 8.1875 0 L 2.640625 0 L 2.640625 -25.34375 L 12.90625 -25.34375 C 14.644531 -25.34375 16.160156 -24.988281 17.453125 -24.28125 C 18.742188 -23.570312 19.75 -22.582031 20.46875 -21.3125 C 21.1875 -20.050781 21.546875 -18.578125 21.546875 -16.890625 C 21.546875 -15.191406 21.1875 -13.707031 20.46875 -12.4375 C 19.75 -11.175781 18.742188 -10.191406 17.453125 -9.484375 C 16.160156 -8.773438 14.644531 -8.421875 12.90625 -8.421875 Z M 11.671875 -20.40625 L 8.1875 -20.40625 L 8.1875 -13.359375 L 11.671875 -13.359375 C 14.347656 -13.359375 15.6875 -14.535156 15.6875 -16.890625 C 15.6875 -19.234375 14.347656 -20.40625 11.671875 -20.40625 Z M 11.671875 -20.40625 "/></g></g></g><g fill="#ffffff" fill-opacity="1"><g transform="translate(115.487273, 34.230615)"><g><path d="M 8.1875 0 L 2.640625 0 L 2.640625 -25.34375 L 12.4375 -25.34375 C 15.519531 -25.34375 17.898438 -24.628906 19.578125 -23.203125 C 21.253906 -21.773438 22.09375 -19.75 22.09375 -17.125 C 22.09375 -13.863281 20.6875 -11.507812 17.875 -10.0625 L 22.328125 0 L 16.265625 0 L 12.46875 -8.875 L 8.1875 -8.875 Z M 8.1875 -20.40625 L 8.1875 -13.734375 L 12.40625 -13.734375 C 13.613281 -13.734375 14.550781 -14.03125 15.21875 -14.625 C 15.894531 -15.21875 16.234375 -16.050781 16.234375 -17.125 C 16.234375 -18.195312 15.90625 -19.007812 15.25 -19.5625 C 14.601562 -20.125 13.664062 -20.40625 12.4375 -20.40625 Z M 8.1875 -20.40625 "/></g></g></g><g fill="#ffffff" fill-opacity="1"><g transform="translate(139.047579, 34.230615)"><g/></g></g><g fill="#ffffff" fill-opacity="1"><g transform="translate(148.122409, 34.230615)"><g><path d="M 6.09375 0 L 0.3125 0 L 9.34375 -25.34375 L 14.765625 -25.34375 L 23.765625 0 L 17.875 0 L 16.09375 -5.34375 L 7.90625 -5.34375 Z M 11.34375 -15.40625 L 9.515625 -10 L 14.515625 -10 L 12.703125 -15.40625 C 12.566406 -15.84375 12.429688 -16.289062 12.296875 -16.75 C 12.160156 -17.207031 12.066406 -17.582031 12.015625 -17.875 C 11.972656 -17.582031 11.890625 -17.210938 11.765625 -16.765625 C 11.640625 -16.316406 11.5 -15.863281 11.34375 -15.40625 Z M 11.34375 -15.40625 "/></g></g></g><g fill="#ffffff" fill-opacity="1"><g transform="translate(172.196374, 34.230615)"><g><path d="M 0.75 -5.40625 L 5.75 -5.40625 C 5.800781 -4.8125 6.039062 -4.34375 6.46875 -4 C 6.90625 -3.664062 7.523438 -3.5 8.328125 -3.5 C 9.148438 -3.5 9.753906 -3.632812 10.140625 -3.90625 C 10.523438 -4.175781 10.71875 -4.53125 10.71875 -4.96875 C 10.71875 -5.21875 10.617188 -5.46875 10.421875 -5.71875 C 10.234375 -5.96875 9.816406 -6.160156 9.171875 -6.296875 L 6.03125 -6.984375 C 4.457031 -7.328125 3.28125 -7.878906 2.5 -8.640625 C 1.71875 -9.410156 1.328125 -10.550781 1.328125 -12.0625 C 1.328125 -13.25 1.640625 -14.257812 2.265625 -15.09375 C 2.898438 -15.925781 3.753906 -16.5625 4.828125 -17 C 5.898438 -17.445312 7.125 -17.671875 8.5 -17.671875 C 9.820312 -17.671875 10.988281 -17.429688 12 -16.953125 C 13.019531 -16.472656 13.8125 -15.796875 14.375 -14.921875 C 14.945312 -14.054688 15.234375 -13.046875 15.234375 -11.890625 L 10.234375 -11.890625 C 10.234375 -12.484375 10.0625 -12.957031 9.71875 -13.3125 C 9.382812 -13.664062 8.894531 -13.84375 8.25 -13.84375 C 7.65625 -13.84375 7.179688 -13.695312 6.828125 -13.40625 C 6.472656 -13.125 6.296875 -12.753906 6.296875 -12.296875 C 6.296875 -11.566406 6.914062 -11.0625 8.15625 -10.78125 L 11.34375 -10.109375 C 12.75 -9.804688 13.820312 -9.296875 14.5625 -8.578125 C 15.3125 -7.859375 15.6875 -6.816406 15.6875 -5.453125 C 15.6875 -4.234375 15.363281 -3.175781 14.71875 -2.28125 C 14.082031 -1.394531 13.191406 -0.71875 12.046875 -0.25 C 10.910156 0.207031 9.601562 0.4375 8.125 0.4375 C 5.851562 0.4375 4.054688 -0.101562 2.734375 -1.1875 C 1.410156 -2.269531 0.75 -3.675781 0.75 -5.40625 Z M 0.75 -5.40625 "/></g></g></g><g fill="#ffffff" fill-opacity="1"><g transform="translate(188.6338, 34.230615)"><g><path d="M 13.765625 -17.125 L 13.765625 -12.15625 L 12.09375 -12.15625 C 10.582031 -12.15625 9.398438 -11.789062 8.546875 -11.0625 C 7.691406 -10.332031 7.265625 -9.125 7.265625 -7.4375 L 7.265625 0 L 1.984375 0 L 1.984375 -17.09375 L 6.953125 -17.09375 L 7.234375 -14.5625 C 7.597656 -15.40625 8.15625 -16.082031 8.90625 -16.59375 C 9.65625 -17.101562 10.601562 -17.359375 11.75 -17.359375 C 12.070312 -17.359375 12.394531 -17.34375 12.71875 -17.3125 C 13.050781 -17.28125 13.398438 -17.21875 13.765625 -17.125 Z M 13.765625 -17.125 "/></g></g></g><g fill="#ffffff" fill-opacity="1"><g transform="translate(203.085038, 34.230615)"><g><path d="M 4.59375 -19.796875 C 3.75 -19.796875 3.035156 -20.085938 2.453125 -20.671875 C 1.867188 -21.253906 1.578125 -21.96875 1.578125 -22.8125 C 1.578125 -23.65625 1.867188 -24.363281 2.453125 -24.9375 C 3.035156 -25.507812 3.75 -25.796875 4.59375 -25.796875 C 5.414062 -25.796875 6.113281 -25.507812 6.6875 -24.9375 C 7.269531 -24.363281 7.5625 -23.65625 7.5625 -22.8125 C 7.5625 -21.96875 7.269531 -21.253906 6.6875 -20.671875 C 6.113281 -20.085938 5.414062 -19.796875 4.59375 -19.796875 Z M 1.984375 0 L 1.984375 -17.125 L 7.265625 -17.125 L 7.265625 0 Z M 1.984375 0 "/></g></g></g><g fill="#ffffff" fill-opacity="1"><g transform="translate(212.331084, 34.230615)"><g/></g></g><g fill="#ffffff" fill-opacity="1"><g transform="translate(220.378581, 34.230615)"><g><path d="M 19.796875 0 L 18.390625 -1.578125 C 17.410156 -0.929688 16.296875 -0.429688 15.046875 -0.078125 C 13.804688 0.265625 12.46875 0.4375 11.03125 0.4375 C 9.175781 0.4375 7.535156 0.125 6.109375 -0.5 C 4.679688 -1.125 3.566406 -1.984375 2.765625 -3.078125 C 1.972656 -4.171875 1.578125 -5.441406 1.578125 -6.890625 C 1.578125 -8.367188 2.0625 -9.726562 3.03125 -10.96875 C 4 -12.21875 5.363281 -13.242188 7.125 -14.046875 C 6.226562 -15.066406 5.597656 -16.003906 5.234375 -16.859375 C 4.867188 -17.722656 4.6875 -18.644531 4.6875 -19.625 C 4.6875 -20.8125 4.988281 -21.867188 5.59375 -22.796875 C 6.195312 -23.722656 7.019531 -24.453125 8.0625 -24.984375 C 9.101562 -25.523438 10.285156 -25.796875 11.609375 -25.796875 C 12.929688 -25.796875 14.09375 -25.539062 15.09375 -25.03125 C 16.101562 -24.53125 16.894531 -23.828125 17.46875 -22.921875 C 18.039062 -22.023438 18.328125 -20.992188 18.328125 -19.828125 C 18.328125 -18.546875 17.976562 -17.367188 17.28125 -16.296875 C 16.582031 -15.222656 15.476562 -14.1875 13.96875 -13.1875 L 17.953125 -8.765625 C 18.265625 -9.859375 18.421875 -11.082031 18.421875 -12.4375 L 23.59375 -12.4375 C 23.59375 -10.925781 23.414062 -9.53125 23.0625 -8.25 C 22.707031 -6.976562 22.203125 -5.828125 21.546875 -4.796875 L 25.890625 0 Z M 9.65625 -19.65625 C 9.65625 -19.039062 9.796875 -18.457031 10.078125 -17.90625 C 10.367188 -17.363281 10.820312 -16.726562 11.4375 -16 C 12.78125 -16.820312 13.453125 -18.03125 13.453125 -19.625 C 13.453125 -20.257812 13.289062 -20.753906 12.96875 -21.109375 C 12.65625 -21.460938 12.203125 -21.640625 11.609375 -21.640625 C 11.015625 -21.640625 10.539062 -21.460938 10.1875 -21.109375 C 9.832031 -20.753906 9.65625 -20.269531 9.65625 -19.65625 Z M 7.1875 -7.46875 C 7.1875 -6.414062 7.597656 -5.59375 8.421875 -5 C 9.242188 -4.40625 10.351562 -4.109375 11.75 -4.109375 C 13.113281 -4.109375 14.289062 -4.414062 15.28125 -5.03125 L 9.65625 -11.265625 C 8.007812 -10.304688 7.1875 -9.039062 7.1875 -7.46875 Z M 7.1875 -7.46875 "/></g></g></g><g fill="#ffffff" fill-opacity="1"><g transform="translate(245.377153, 34.230615)"><g/></g></g><g fill="#ffffff" fill-opacity="1"><g transform="translate(254.451995, 34.230615)"><g><path d="M 12.5625 0 L 2.640625 0 L 2.640625 -25.34375 L 12.234375 -25.34375 C 14.710938 -25.34375 16.894531 -24.804688 18.78125 -23.734375 C 20.664062 -22.660156 22.144531 -21.164062 23.21875 -19.25 C 24.289062 -17.332031 24.828125 -15.117188 24.828125 -12.609375 C 24.828125 -10.140625 24.304688 -7.957031 23.265625 -6.0625 C 22.234375 -4.164062 20.796875 -2.679688 18.953125 -1.609375 C 17.117188 -0.535156 14.988281 0 12.5625 0 Z M 11.671875 -20.203125 L 8.1875 -20.203125 L 8.1875 -5.140625 L 12.015625 -5.140625 C 14.210938 -5.140625 15.921875 -5.796875 17.140625 -7.109375 C 18.359375 -8.421875 18.96875 -10.253906 18.96875 -12.609375 C 18.96875 -15.003906 18.328125 -16.867188 17.046875 -18.203125 C 15.773438 -19.535156 13.984375 -20.203125 11.671875 -20.203125 Z M 11.671875 -20.203125 "/></g></g></g><g fill="#ffffff" fill-opacity="1"><g transform="translate(280.51215, 34.230615)"><g><path d="M 15.578125 0 L 1.234375 0 L 1.234375 -4.390625 L 8.90625 -12.734375 L 1.234375 -12.734375 L 1.234375 -17.125 L 15.578125 -17.125 L 15.578125 -12.734375 L 7.703125 -4.390625 L 15.578125 -4.390625 Z M 15.578125 0 "/></g></g></g><g fill="#ffffff" fill-opacity="1"><g transform="translate(297.326272, 34.230615)"><g><path d="M 7.15625 0.4375 C 5.351562 0.4375 3.921875 -0.0546875 2.859375 -1.046875 C 1.796875 -2.035156 1.265625 -3.363281 1.265625 -5.03125 C 1.265625 -6.601562 1.804688 -7.859375 2.890625 -8.796875 C 3.972656 -9.734375 5.546875 -10.285156 7.609375 -10.453125 L 12.40625 -10.828125 L 12.40625 -11.09375 C 12.40625 -12.8125 11.429688 -13.671875 9.484375 -13.671875 C 7.203125 -13.671875 6.0625 -12.867188 6.0625 -11.265625 L 1.671875 -11.265625 C 1.671875 -12.566406 2.003906 -13.695312 2.671875 -14.65625 C 3.335938 -15.613281 4.28125 -16.351562 5.5 -16.875 C 6.71875 -17.40625 8.140625 -17.671875 9.765625 -17.671875 C 12.253906 -17.671875 14.171875 -17.003906 15.515625 -15.671875 C 16.859375 -14.335938 17.53125 -12.445312 17.53125 -10 L 17.53125 0 L 12.875 0 L 12.53125 -2.265625 C 12.257812 -1.484375 11.613281 -0.835938 10.59375 -0.328125 C 9.582031 0.179688 8.4375 0.4375 7.15625 0.4375 Z M 9 -3.453125 C 10.007812 -3.453125 10.832031 -3.695312 11.46875 -4.1875 C 12.113281 -4.6875 12.4375 -5.425781 12.4375 -6.40625 L 12.4375 -7.328125 L 9.765625 -7.09375 C 8.617188 -7 7.8125 -6.804688 7.34375 -6.515625 C 6.875 -6.234375 6.640625 -5.820312 6.640625 -5.28125 C 6.640625 -4.0625 7.425781 -3.453125 9 -3.453125 Z M 9 -3.453125 "/></g></g></g><g clip-path="url(#79ea8be878)"><g fill="#ffffff" fill-opacity="1"><g transform="translate(316.640231, 34.230615)"><g><path d="M 7.265625 0 L 1.984375 0 L 1.984375 -25.828125 L 7.265625 -25.828125 L 7.265625 -10.953125 L 12.8125 -17.125 L 19.421875 -17.125 L 12.984375 -10.34375 L 19.21875 0 L 13.125 0 L 9.28125 -6.40625 L 7.265625 -4.28125 Z M 7.265625 0 "/></g></g></g></g></g></g></svg>